<svg width="128" height="128" viewBox="0 0 128 128" fill="none" xmlns="http://www.w3.org/2000/svg">
<g clip-path="url(#clip0_141_46)">
<path d="M26.6667 16H53.3333C54.7478 16 56.1044 16.5619 57.1046 17.5621C58.1048 18.5623 58.6667 19.9188 58.6667 21.3333V37.3333C58.6667 38.7478 58.1048 40.1044 57.1046 41.1046C56.1044 42.1048 54.7478 42.6667 53.3333 42.6667H21.3333C19.9188 42.6667 18.5623 42.1048 17.5621 41.1046C16.5619 40.1044 16 38.7478 16 37.3333V26.6667C16 23.8377 17.1238 21.1246 19.1242 19.1242C21.1246 17.1238 23.8377 16 26.6667 16Z" fill="#F59E0B"/>
<path d="M74.6666 16H101.333C104.162 16 106.875 17.1238 108.876 19.1242C110.876 21.1246 112 23.8377 112 26.6667V69.3333C112 70.7478 111.438 72.1044 110.438 73.1046C109.438 74.1048 108.081 74.6667 106.667 74.6667H74.6666C73.2521 74.6667 71.8955 74.1048 70.8954 73.1046C69.8952 72.1044 69.3333 70.7478 69.3333 69.3333V21.3333C69.3333 19.9188 69.8952 18.5623 70.8954 17.5621C71.8955 16.5619 73.2521 16 74.6666 16Z" fill="#10B981"/>
<path d="M74.6666 85.3333H106.667C108.081 85.3333 109.438 85.8952 110.438 86.8954C111.438 87.8956 112 89.2522 112 90.6667V101.333C112 104.162 110.876 106.875 108.876 108.876C106.875 110.876 104.162 112 101.333 112H74.6666C73.2521 112 71.8955 111.438 70.8954 110.438C69.8952 109.438 69.3333 108.081 69.3333 106.667V90.6667C69.3333 89.2522 69.8952 87.8956 70.8954 86.8954C71.8955 85.8952 73.2521 85.3333 74.6666 85.3333Z" fill="#F59E0B"/>
<path d="M21.3333 53.3333H53.3333C54.7478 53.3333 56.1044 53.8952 57.1046 54.8954C58.1048 55.8956 58.6667 57.2522 58.6667 58.6667V106.667C58.6667 108.081 58.1048 109.438 57.1046 110.438C56.1044 111.438 54.7478 112 53.3333 112H26.6667C23.8377 112 21.1246 110.876 19.1242 108.876C17.1238 106.875 16 104.162 16 101.333V58.6667C16 57.2522 16.5619 55.8956 17.5621 54.8954C18.5623 53.8952 19.9188 53.3333 21.3333 53.3333Z" fill="#10B981"/>
</g>
<defs>
<clipPath id="clip0_141_46">
<rect width="128" height="128" fill="white"/>
</clipPath>
</defs>
</svg>
